<svg version="1.0" xmlns="http://www.w3.org/2000/svg" viewBox="0 0 600 600"><path d="M145 37.6v37.6l6.2 7.7c34.3 42.5 56.9 103.8 65 176.1 1.9 17.6 1.6 67.9-.6 86.5-8.2 69.7-30.8 129.9-64.4 171.6l-6.2 7.7v37.6c0 29.7.3 37.6 1.3 37.6.7 0 5.8-3.6 11.4-8l10.2-8h84.3c75.9 0 84.6-.2 86.6-1.6 2.2-1.5 2.5-1.5 4.8.7 3.5 3.3 12.6 3.8 17.1 1 4.3-2.7 6.7-7.5 6.6-13.5-.1-5.2-1.9-8.5-6.6-12-3.9-2.9-12.2-2.8-16.4.2-3.7 2.6-4.6 2.7-6.3.7-1.1-1.3-10.5-1.5-73.1-1.5H193l6.2-7.8c10.3-12.9 23.1-33.3 32.1-50.9 8.1-16.1 17.1-37 19.8-46.1l1.2-4.2h78.5c69.5 0 78.7-.2 80.3-1.5 1.5-1.5 2-1.4 5.4 1 9.7 6.5 23.5-.3 23.5-11.8 0-11.8-10.5-18.7-21.4-13.9-2.5 1.2-4.6 2.6-4.6 3.2 0 .6-1.2.2-2.6-.9-2.6-2.1-3.3-2.1-76.5-2.1-40.7 0-73.9-.1-73.9-.3 0-.2 1.4-6.3 3-13.5 6-26 10.2-55.7 11.6-82.5l.7-12.7h73.6c64.1 0 73.9-.2 75.8-1.5 2-1.4 2.5-1.3 5.9 1 6.8 4.6 16.7 2.5 20.8-4.5 4.1-7 2.2-15.2-4.8-20.4-4-3-12.4-2.9-16.6.2-2.9 2.2-3.3 2.2-5.5.8-2.2-1.4-10.7-1.6-75.8-1.6h-73.4l-.7-14.2c-1.5-30.3-8.1-73.6-14.2-93.1-.5-1.6 3.4-1.7 73.3-1.7 71.2 0 73.9-.1 76.3-2 2.5-1.9 2.5-1.9 4.7.1 4.2 4 13.6 4.3 18.4.6 3-2.3 5.9-8.2 5.9-12 0-4.7-2-8.7-6.2-12.2-2.9-2.4-3.8-2.7-9.5-2.3-4.7.3-6.8.9-8.6 2.6l-2.4 2.2-2.5-2c-2.5-1.9-4.1-2-80.3-2.2l-77.7-.3-3.3-9c-11.5-32.2-30.8-68-49.3-91.5l-5.1-6.5 70.8-.5c64-.5 71.1-.7 72.7-2.2 1.8-1.5 2.1-1.4 5.4.8 2.5 1.7 4.8 2.4 8.3 2.4 10.6 0 15.7-6.3 14.9-18.2-.3-3.7-5.9-9.4-10.8-10.7-4.6-1.2-9.8-.2-13.6 2.8-2.3 1.8-2.4 1.8-4.7 0-2.2-1.8-5.4-1.9-85.9-1.9h-83.5l-5.1-4.3C155.8 6 147.4 0 146.2 0c-.9 0-1.2 9.8-1.2 37.6z"/><path d="M242 52.7c0 .3 2.6 5.2 5.9 10.7 11.5 19.8 24.1 47.7 31.1 69.1 1.8 5.5 3.6 10.4 4 10.8.4.4 5.2.6 10.8.5l10.1-.3-4.3-13c-8.1-24-17.7-46.3-28.4-66.3L264.6 52h-11.3c-6.2 0-11.3.3-11.3.7zM304 53c0 .6 2.2 5.4 4.9 10.8 8.9 17.9 25.4 62.4 28.6 76.9l.7 3.3h10.4c9.6 0 10.5-.2 10-1.8-.2-.9-1.4-5.1-2.6-9.2-6.9-24-14.4-45.1-23.8-66.3L325.7 52h-10.8c-6.7 0-10.9.4-10.9 1zM295 190.7c3.7 16.6 8.5 52.3 9.5 70.3.3 6.3.8 13 1.1 14.7l.5 3.3H326l-.5-8.3c-2.1-30-4.6-51.3-8.6-72.5l-2.1-11.2h-20.6l.8 3.7zM348.4 188.7c2.8 9.9 9.6 71 9.6 87v3.3h20v-4.6c0-13.9-3.5-49.4-7.2-73.2l-2.2-14.2h-10.3c-9.5 0-10.4.2-9.9 1.7zM305.6 325.2c-.3 1.3-.6 4.8-.6 7.9 0 12.9-4.9 53-8.8 72.2-1 4.8-1.6 9-1.3 9.2.2.3 4.8.5 10.2.5h9.7l2.1-11.3c3.7-19.8 6.4-40.9 7.6-59.2.3-5 .8-11.8 1.1-15.3l.6-6.2h-10c-9.5 0-10 .1-10.6 2.2zM357.6 334.2c-1.2 19.7-3.5 42.4-6.1 59.6-1.4 9.2-2.7 17.6-2.8 18.7-.2 1.9.4 2 9.8 2h9.9l.8-3.5c2.8-13 7.2-52.3 8.4-74.8l.7-13.2h-20l-.7 11.2zM282.7 458.7c-.2.5-1.4 3.9-2.7 7.8-6.9 21.5-21.5 54.1-32.4 72.4-3.1 5.1-5.6 9.7-5.6 10.2s5.1.9 11.4.9h11.3l9.1-17.8c12-23.6 23-50.3 28.5-69l1.5-5.2h-10.4c-5.6 0-10.5.3-10.7.7zM335.5 467.7c-6.4 22.6-18.5 54.3-27.6 72.5-2.1 4.3-3.9 8.2-3.9 8.8 0 .6 4.1 1 10.8 1h10.7l2.9-6.3c10.3-22.7 20.4-49.7 26.6-71.4 1.7-6 3.3-11.6 3.6-12.6.5-1.5-.4-1.7-9.9-1.7h-10.4l-2.8 9.7z"/></svg>