<svg xmlns="http://www.w3.org/2000/svg" viewBox="0 0 60 60" xml:space="preserve"><path d="M58.432 20.432A84.202 84.202 0 0 0 56.633 11l2.153-1.82a.448.448 0 0 0 .146-.451L57 1h-7.811c-.652 0-1.316.104-1.967.324-3.143 1.061-4.811 4.409-3.727 7.48 2.196 6.259 6.495 24.402.113 33.131-2.606 3.564-6.972 5.297-13.348 5.297h-.52c-6.382 0-10.751-1.736-13.356-5.308-6.372-8.736-1.936-27.302.12-33.117 1.086-3.071-.582-6.421-3.726-7.482a6.13 6.13 0 0 0-2.389-.308c-.054-.003-.104-.017-.158-.017H3L1.068 8.729a.447.447 0 0 0 .145.451L3.367 11a84.43 84.43 0 0 0-1.799 9.432c-1.569 12.086.116 21.615 5.006 28.32C9.984 53.427 16.771 59 29.74 59h.52c7.159 0 16.988-1.778 23.166-10.248 4.89-6.705 6.575-16.234 5.006-28.32zM9.5 6a2.5 2.5 0 1 1 0 5 2.5 2.5 0 0 1 0-5zm-2 12a2.5 2.5 0 1 1 0 5 2.5 2.5 0 0 1 0-5zm5.1 28.899a1.997 1.997 0 0 1-2.795-.437c-3.092-4.239-4.707-9.769-4.801-16.433a2 2 0 0 1 1.972-2.028c1.057.001 2.013.867 2.028 1.972.082 5.82 1.438 10.575 4.033 14.132a2 2 0 0 1-.437 2.794zm25.94 7.028c-2.561.718-5.365 1.082-8.334 1.082h-.412c-2.999 0-5.804-.361-8.338-1.073a2.001 2.001 0 0 1 1.082-3.852c2.182.614 4.623.925 7.256.925h.412c2.604 0 5.045-.314 7.254-.934a2 2 0 1 1 1.08 3.852zM50.5 6a2.5 2.5 0 1 1 0 5 2.5 2.5 0 0 1 0-5zm-.301 40.462a1.998 1.998 0 0 1-2.795.437 2.001 2.001 0 0 1-.438-2.795c2.595-3.557 3.951-8.312 4.033-14.132.016-1.104.972-1.971 2.028-1.972a2.002 2.002 0 0 1 1.972 2.028c-.093 6.665-1.708 12.195-4.8 16.434zM52.5 23a2.5 2.5 0 1 1 0-5 2.5 2.5 0 0 1 0 5z" /></svg>