<svg viewBox="0 0 512.001 512.001" xmlns="http://www.w3.org/2000/svg"><path d="M508.713 487.63L380.718 327.636l-54.074 34.961a14.992 14.992 0 01-8.145 2.403c-2.668 0-5.339-.711-7.717-2.138L256 329.993l-54.783 32.87a15.001 15.001 0 01-15.861-.266l-54.074-34.961L3.287 487.63A15.001 15.001 0 0015 512h482a15.001 15.001 0 0011.713-24.37z"/><path d="M193.797 332.33l54.486-32.692a14.996 14.996 0 0115.435 0l54.486 32.692 43.677-28.24L271 190.489v-45.718l112.208-56.104a15 15 0 000-26.834l-120.5-60.25a14.995 14.995 0 00-14.594.657A15.003 15.003 0 00241 15.001v175.488L150.119 304.09z"/></svg>