<svg xmlns="http://www.w3.org/2000/svg" viewBox="0 0 512 512"><path d="M256 0c-19.92 0-36.87 13.02-42.76 31h85.52C292.87 13.02 275.92 0 256 0zM211 497c0 8.28 6.72 15 15 15h60c8.28 0 15-6.72 15-15v-76h-90zM46 211h360c3.979 0 7.794-1.581 10.606-4.394l60-60c5.858-5.858 5.858-15.355 0-21.213l-60-60A15 15 0 00406 61H46c-8.284 0-15 6.716-15 15v120c0 8.284 6.716 15 15 15zM466 241H106a14.996 14.996 0 00-10.606 4.394l-60 60c-5.858 5.858-5.858 15.355 0 21.213l60 60A15 15 0 00106 391h360c8.284 0 15-6.716 15-15V256c0-8.284-6.716-15-15-15z"/></svg>