<svg xmlns="http://www.w3.org/2000/svg" viewBox="0 0 510.393 510.393" xml:space="preserve"><path d="m473.929 443.781-61.006-61.006c20.193-23.994 34.821-50.539 36.986-72.686 1.146-11.726-7.431-22.161-19.157-23.308s-22.161 7.431-23.308 19.157c-.274 2.806-.97 5.822-2.02 8.99l-59.715-59.711 128.212-128.231a21.34 21.34 0 0 0 5.151-8.333l30.187-90.496c5.563-16.678-10.303-32.548-26.982-26.99L391.76 31.333a21.334 21.334 0 0 0-8.34 5.154L255.197 164.711 126.972 36.495a21.33 21.33 0 0 0-8.335-5.152L28.119 1.156C11.44-4.406-4.43 11.464 1.133 28.143L31.32 118.66a21.323 21.323 0 0 0 5.152 8.335L164.687 255.22l-59.981 59.981c-.947-3.009-1.532-5.854-1.692-8.477-.713-11.76-10.826-20.716-22.586-20.002-11.76.714-20.716 10.826-20.002 22.586.968 15.948 8.92 34.408 21.056 52.607.126.2.237.407.371.604.458.677.942 1.352 1.411 2.027a237.704 237.704 0 0 0 14.116 18.317L36.465 443.78c-8.331-8.33-21.838-8.33-30.169.001s-8.331 21.839 0 30.17l14.936 14.936c.049.05.091.106.141.156s.105.091.156.141l14.934 14.934c8.331 8.331 21.839 8.331 30.17 0 8.33-8.33 8.331-21.835.003-30.166l61.006-61.006c23.995 20.193 50.54 34.822 72.687 36.987 11.726 1.146 22.161-7.431 23.308-19.157 1.146-11.726-7.431-22.161-19.157-23.308-2.808-.274-5.826-.971-8.997-2.022l59.705-59.719 59.984 59.988c-3.005.945-5.847 1.529-8.467 1.688-11.76.713-20.716 10.826-20.002 22.586.714 11.76 10.826 20.716 22.586 20.002 15.989-.97 34.502-8.962 52.746-21.15.143-.092.292-.17.434-.266.53-.358 1.058-.738 1.587-1.103a177.51 177.51 0 0 0 1.601-1.113c.565-.397 1.13-.785 1.694-1.19 1.3-.929 2.595-1.884 3.889-2.852l.626-.471a237.06 237.06 0 0 0 10.981-8.811l60.916 60.916c-8.331 8.331-8.331 21.839 0 30.17 8.331 8.331 21.839 8.331 30.17 0l14.958-14.958c.043-.042.09-.077.133-.12s.078-.09.12-.133l14.954-14.954c8.331-8.331 8.331-21.839 0-30.17-8.333-8.33-21.837-8.332-30.169-.005zm-63.9-373.562 45.253-15.081-15.091 45.24-124.652 124.671-30.171-30.169L410.029 70.219zM55.111 55.135l45.252 15.091 139.565 139.555c.062.064.114.133.177.196l60.352 60.331.018.016 82.127 82.121a212.657 212.657 0 0 1-14.867 16.509 212.317 212.317 0 0 1-15.186 13.8l-82.221-82.227c-.02-.02-.036-.042-.056-.062l-60.331-60.331-.017-.016L70.202 100.387 55.111 55.135zm102.853 327.488a213.82 213.82 0 0 1-12.42-10.884l-.063-.061a212.993 212.993 0 0 1-3.377-3.281c-.34-.336-.678-.673-1.015-1.011-4.825-4.872-9.294-9.801-13.419-14.809l67.186-67.186 30.161 30.164-67.053 67.068z"/></svg>